<svg xmlns="http://www.w3.org/2000/svg" width="20" height="20" viewBox="0 0 24 24" role="presentation" data-v-d07ba270=""><!----><g fill="inherit" stroke="inherit"><!--[--><path d="M21 17.5V8.5H7V17.5H21ZM21 3.5C21.5304 3.5 22.0391 3.71071 22.4142 4.08579C22.7893 4.46086 23 4.96957 23 5.5V17.5C23 18.0304 22.7893 18.5391 22.4142 18.9142C22.0391 19.2893 21.5304 19.5 21 19.5H7C6.46957 19.5 5.96086 19.2893 5.58579 18.9142C5.21071 18.5391 5 18.0304 5 17.5V5.5C5 4.96957 5.21071 4.46086 5.58579 4.08579C5.96086 3.71071 6.46957 3.5 7 3.5H8V1.5H10V3.5H18V1.5H20V3.5H21ZM3 21.5H17V23.5H3C2.46957 23.5 1.96086 23.2893 1.58579 22.9142C1.21071 22.5391 1 22.0304 1 21.5V9.5H3V21.5ZM19 15.5H15V11.5H19V15.5Z" fill="inherit" data-v-d07ba270=""></path><!--]--></g></svg>